Coordinates
version=1
nRows=27
nColumns=12
inDegrees=yes

Units are S.I. units (second, meters, Newtons, ...)
Angles are in degrees

endheader
time	SC_y	SC_z	SC_x	AC_y	AC_z	AC_x	GH_y	GH_z	GH_yy	EL_x	PS_y
       0.0              -53.78          24.93          27.46          41.71         -3.302         -0.355         -35.18          30.41         -21.17          5.459          42.83
    0.0134              -53.78          24.93          27.47          41.71         -3.302        -0.3538         -35.19           30.4         -21.18           5.47          42.84
    0.0268              -53.77          24.93          27.48          41.71         -3.302        -0.3526          -35.2          30.39          -21.2          5.482          42.84
    0.0402              -53.76          24.93          27.49          41.72         -3.302        -0.3512         -35.21          30.39         -21.22          5.494          42.85
    0.0536              -53.76          24.94           27.5          41.72         -3.302        -0.3498         -35.22          30.38         -21.25          5.507          42.85
     0.067              -53.75          24.94          27.51          41.72         -3.302        -0.3483         -35.24          30.37         -21.27          5.521          42.86
    0.0804              -53.74          24.94          27.52          41.72         -3.302        -0.3467         -35.25          30.36         -21.29          5.536          42.87
   0.09379              -53.74          24.94          27.53          41.72         -3.302        -0.3449         -35.27          30.35         -21.32          5.551          42.88
    0.1072              -53.73          24.95          27.54          41.73         -3.302        -0.3431         -35.28          30.34         -21.35          5.568          42.89
    0.1206              -53.72          24.95          27.55          41.73         -3.302        -0.3411          -35.3          30.33         -21.38          5.587           42.9
     0.134              -53.71          24.95          27.57          41.73         -3.302        -0.3389         -35.32          30.31         -21.41          5.606          42.91
    0.1474               -53.7          24.96          27.58          41.73         -3.302        -0.3366         -35.34           30.3         -21.45          5.627          42.92
    0.1608              -53.69          24.96           27.6          41.74         -3.302        -0.3342         -35.36          30.28         -21.48           5.65          42.93
    0.1742              -53.67          24.97          27.62          41.74         -3.302        -0.3315         -35.38          30.27         -21.52          5.674          42.94
    0.1876              -53.66          24.97          27.64          41.74         -3.301        -0.3286         -35.41          30.25         -21.57          5.701          42.95
     0.201              -53.64          24.98          27.66          41.74         -3.301        -0.3254         -35.44          30.23         -21.61          5.729          42.97
    0.2144              -53.63          24.98          27.68          41.75         -3.301         -0.322         -35.47          30.21         -21.67          5.761          42.98
    0.2278              -53.61          24.99           27.7          41.75         -3.301        -0.3183          -35.5          30.19         -21.72          5.795           43.0
    0.2412              -53.59           25.0          27.73          41.76         -3.301        -0.3142         -35.53          30.16         -21.78          5.832          43.02
    0.2546              -53.57          25.01          27.76          41.76         -3.301        -0.3098         -35.57          30.14         -21.85          5.872          43.04
     0.268              -53.55          25.01          27.79          41.77         -3.301        -0.3049         -35.62          30.11         -21.93          5.917          43.07
    0.2814              -53.52          25.02          27.82          41.77         -3.301        -0.2995         -35.66          30.08         -22.01          5.966          43.09
    0.2948               -53.5          25.03          27.86          41.78         -3.301        -0.2935         -35.72          30.04          -22.1           6.02          43.12
    0.3082              -53.47          25.05          27.91          41.79         -3.301        -0.2869         -35.77           30.0          -22.2           6.08          43.15
    0.3216              -53.43          25.06          27.95           41.8         -3.301        -0.2796         -35.84          29.96         -22.31          6.147          43.18
     0.335              -53.39          25.07          28.01          41.81         -3.301        -0.2714         -35.91          29.91         -22.43          6.222          43.22
    0.3484              -53.35          25.09          28.06          41.82           -3.3        -0.2623         -35.99          29.85         -22.57          6.305          43.26
